<?xml version="1.0" encoding="utf-8"?>
<!-- Generator: Adobe Illustrator 21.0.0, SVG Export Plug-In . SVG Version: 6.00 Build 0)  -->
<svg version="1.1" id="Calque_1" xmlns="http://www.w3.org/2000/svg" xmlns:xlink="http://www.w3.org/1999/xlink" x="0px" y="0px"
	 viewBox="0 0 200 200" style="enable-background:new 0 0 200 200;" xml:space="preserve">
<style type="text/css">
	.st0{fill:url(#SVGID_1_);}
	.st1{fill:#494949;stroke:#FFFFFF;stroke-width:3;stroke-miterlimit:10;}
	.st2{fill:#0E79BE;}
	.st3{font-family:'Quicksand-Bold';}
	.st4{font-size:41.1723px;}
</style>
<g>
	<linearGradient id="SVGID_1_" gradientUnits="userSpaceOnUse" x1="100" y1="147.5626" x2="100" y2="8.1345">
		<stop  offset="0" style="stop-color:#0079C2"/>
		<stop  offset="1" style="stop-color:#00355E"/>
	</linearGradient>
	<path class="st0" d="M108.7,147.6c-5.8,0-11.6,0-17.4,0c0-4.6,0-9.1,0-13.6c-4-1.1-7.8-2.1-11.8-3.1c-2.2,3.8-4.5,7.8-6.8,11.8
		c-5.1-3-10.1-5.8-15.1-8.7c2.3-4.1,4.6-8,6.5-11.3c-3-3.1-5.8-5.9-8.7-8.8c-3.5,2-7.4,4.3-11.4,6.6c-2.9-5.1-5.8-10.1-8.7-15.1
		c4-2.3,8-4.6,11.8-6.8c-1.1-4-2.1-7.8-3.1-11.8c-4.4,0-8.9,0-13.5,0c0-5.9,0-11.6,0-17.4c4.6,0,9.2,0,13.5,0
		c1.1-4,2.1-7.9,3.1-11.7c-3.9-2.2-7.8-4.5-11.8-6.8c2.9-5.1,5.8-10.1,8.7-15.1c4.1,2.3,8,4.6,11.3,6.5c3-3,5.9-5.8,8.9-8.7
		c-2-3.4-4.2-7.4-6.5-11.4c5.1-2.9,10-5.8,15.1-8.7c2.3,4,4.6,7.9,6.8,11.8c4-1.1,7.8-2.1,11.8-3.2c0-4.4,0-9,0-13.6
		c5.8,0,11.6,0,17.4,0c0,4.6,0,9.1,0,13.6c4,1.1,7.9,2.1,11.8,3.1c2.2-3.9,4.5-7.8,6.8-11.8c5.1,3,10.1,5.8,15.1,8.7
		c-2.3,4.1-4.6,8-6.5,11.3c3,3,5.8,5.9,8.7,8.8c3.5-2,7.4-4.2,11.4-6.5c2.9,5.1,5.8,10,8.7,15.1c-4,2.3-7.9,4.6-11.7,6.8
		c1.1,4,2.1,7.8,3.1,11.8c4.4,0,8.9,0,13.5,0c0,5.9,0,11.6,0,17.4c-4.6,0-9.2,0-13.5,0c-1.1,4-2.1,7.9-3.1,11.7
		c3.9,2.2,7.8,4.5,11.7,6.8c-2.9,5.1-5.8,10.1-8.7,15.1c-4.1-2.3-8-4.6-11.3-6.5c-3.1,3-5.9,5.8-8.9,8.7c2,3.5,4.2,7.4,6.5,11.3
		c-5.1,2.9-10.1,5.8-15.1,8.7c-2.3-4-4.6-7.9-6.8-11.7c-4,1.1-7.8,2.1-11.8,3.1C108.7,138.4,108.7,143,108.7,147.6z M139.2,77.8
		c-0.3-22-17.5-39.2-39.3-39.1c-21.9,0-39.1,17.3-39.1,39.1C60.8,99.6,78,117,100,117C121.9,117,138.9,99.7,139.2,77.8z"/>
	<path class="st1" d="M59.2,107.3c0.4-1.1,0.6-2.3,1.2-3.3c0.9-1.4,2.1-2.7,3.3-3.9c2.9-3,5.9-5.9,8.8-8.9c2.9-2.9,5.7-5.7,8.6-8.6
		c2.9-2.9,5.8-5.9,8.8-8.8c1.3-1.3,2.6-2.8,4.3-3.7c1.4-0.7,2.8-1,4.3-1c0.4,0,0.8-0.2,1.1-0.5c6.8-6.7,13.5-13.5,20.3-20.3
		c0.1-0.1,0.2-0.2,0.3-0.3c1-0.8,1-0.8,0.5-2.1c-2.1-4.8-5.4-8.4-10.4-10.2c-1.6-0.6-3.3-0.8-4.9-1.1c-0.9-0.2-1.5-0.8-1.5-1.6
		c0-0.8,0.5-1.5,1.4-1.8c6.1-1.9,12-1.6,17.8,0.9c2.7,1.2,5.1,2.7,7.4,4.6c0.3,0.2,0.6,0.5,0.9,0.5c2.2,0.5,3.9,1.8,5.4,3.5
		c1,1.2,1.9,2.4,2.8,3.7c0.3,0.4,0.5,0.6,1.1,0.6c1.4,0,2.6,0.7,3.6,1.6c2.6,2.3,5.1,4.7,7.7,7.1c0.5,0.5,1,0.9,1.4,1.3
		c-4.7,4.7-9.3,9.3-14,14c-3-3.1-6.4-6.1-8.8-9.8c-0.7-1-1.2-2-1.3-3.2c0-0.3-0.5-0.5-0.7-0.8c-1.4,1.4-2.7,2.6-3.9,3.9
		c-4.6,4.6-9.2,9.2-13.8,13.7c-1.2,1.2-2.4,2.4-3.6,3.6c-0.2,0.2-0.4,0.5-0.4,0.8c0.2,3.2-1.3,5.6-3.5,7.8c-4.1,4-8.1,8.1-12.1,12.1
		c-3.7,3.7-7.4,7.4-11.2,11.1c-2,2-4,4.1-6.1,6c-3.8,3.7-9.8,3.3-13.1-0.9c-1-1.3-1.4-2.7-1.8-4.2C59.2,108.6,59.2,107.9,59.2,107.3
		z"/>
	<path class="st1" d="M142.1,111.8c-1.5,2.8-3.5,4.9-6.9,5.1c-2.5,0.2-4.5-0.8-6.3-2.5C114,100.6,99.1,86.7,84.1,72.9
		c-1.3-1.2-2.7-2.4-3.9-3.6c-0.9-0.9-1.6-1-2.8-0.6c-11.6,4-23.9-2.2-27.1-13.6c-0.8-2.9-0.9-5.8-0.2-9c1.4,1.3,2.7,2.4,4,3.6
		c2,1.8,4.1,3.5,5.8,5.5c1.8,2.1,3.7,2.6,6.3,1.6c2.4-0.9,4.9-1.4,7.4-2c0.9-0.2,1.5-0.7,1.7-1.7c0.7-3.1,1.6-6.2,2.2-9.3
		c0.1-0.7-0.2-1.8-0.7-2.2c-3.7-3.5-7.4-7-11.3-10.6c0.4-0.2,0.6-0.4,0.9-0.4C80,28.4,90.9,38,90.9,50.1c0,2.1-0.6,4.3-1.1,6.4
		c-0.2,0.9-0.2,1.4,0.5,2.1c14.2,13.1,28.5,26.3,42.7,39.4c2.3,2.1,4.6,4.2,6.8,6.3c0.9,0.9,1.5,2.1,2.3,3.1
		C142.1,109,142.1,110.4,142.1,111.8z M134.1,113.4c2.5,0,4.6-1.9,4.6-4.2c0-2.2-2.2-4.2-4.7-4.1c-2.5,0-4.5,1.9-4.5,4.1
		C129.5,111.5,131.6,113.4,134.1,113.4z"/>
	<path class="st1" d="M83.2,123.1c-0.9-1.3-1.9-2.5-2.6-3.8c-2.8-4.9-3.6-10.1-2.5-15.5c0.9-4.7,3.2-8.6,6.7-11.9
		c2.3-2.1,4.9-3.7,7.8-4.7c0.5-0.2,0.6-0.4,0.6-0.9c0-12.8,0-25.5,0-38.3c0-0.5,0.1-0.9,0.5-1.3c2.1-2,4.1-4.1,6.3-6.2
		c0.2,0.2,0.3,0.3,0.5,0.5c2,2,3.9,3.9,5.9,5.9c0.2,0.2,0.4,0.7,0.4,1c0,1.3,0.3,2.8-0.1,3.9c-0.4,1.1-1.7,1.9-2.6,2.8
		c-0.6,0.6-1.2,1.2-1.8,1.8c0.8,0.8,1.5,1.5,2.3,2.3c0.7,0.7,1.5,1.5,2.3,2.3c-0.8,0.8-1.5,1.5-2.2,2.2c-0.7,0.7-1.5,1.5-2.2,2.2
		c0.2,0.2,0.3,0.4,0.5,0.6c1.2,1.2,2.3,2.3,3.5,3.5c0.3,0.3,0.5,0.7,0.5,1.1c0,5.3,0,10.5,0,15.8c0,0.5,0.2,0.7,0.7,0.9
		c9.4,3.3,15.4,12.4,14.9,22.2c-0.3,5-2,9.4-5.2,13.3c-0.1,0.2-0.2,0.3-0.3,0.5c-0.7,0.7-1.4,1.4-2,2c-0.1,0.1-0.3,0.1-0.4,0.2
		c-2.9,2.4-6.1,4-9.8,4.8c-5.5,1.1-10.7,0.3-15.6-2.4c-1.3-0.8-2.5-1.7-3.8-2.6C84.5,124.5,83.8,123.8,83.2,123.1z M94.9,111.9
		c-2.9,2.7-2.9,7.5-0.1,10.3c2.8,2.9,7.5,3,10.4,0.2c2.9-2.8,3-7.4,0.1-10.4C102.5,109.1,97.8,109,94.9,111.9z"/>
	<text transform="matrix(1 0 0 1 45.1852 182.571)" class="st2 st3 st4">Dtory</text>
</g>
</svg>
